<svg width="32" height="32" viewBox="0 0 20 26" fill="none" xmlns="http://www.w3.org/2000/svg">
<path d="M19.3142 12.9284C19.3148 12.9291 19.3159 12.929 19.3165 12.9283C19.3175 12.9271 19.3193 12.9278 19.3193 12.9293V25.1026C19.3193 25.5286 18.974 25.874 18.5479 25.874H6.37305C6.37197 25.874 6.37142 25.8727 6.37219 25.872C6.37266 25.8715 6.37266 25.8707 6.37219 25.8702L0.225901 19.723C0.0812576 19.5783 0 19.3821 0 19.1776V0.771417C0 0.345375 0.345375 0 0.771417 0H5.78327C6.20931 0 6.55469 0.345375 6.55469 0.771417V5.78327C6.55469 6.20931 6.90006 6.55469 7.3261 6.55469H12.6209C12.8255 6.55469 13.0217 6.63596 13.1664 6.78063L19.3142 12.9284ZM6.38379 18.7208C6.38379 19.1468 6.72916 19.4922 7.15521 19.4922H12.1671C12.5931 19.4922 12.9385 19.1468 12.9385 18.7208V13.7089C12.9385 13.2829 12.5931 12.9375 12.1671 12.9375H7.15521C6.72916 12.9375 6.38379 13.2829 6.38379 13.7089V18.7208Z" fill="#000000"/>
</svg>

