<svg xmlns="http://www.w3.org/2000/svg" version="1.1" xmlns:xlink="http://www.w3.org/1999/xlink" width="1000" height="1000"><g clip-path="url(#SvgjsClipPath1150)"><rect width="1000" height="1000" fill="#000000"></rect><g transform="matrix(19.444444444444443,0,0,19.444444444444443,150,150)"><svg xmlns="http://www.w3.org/2000/svg" version="1.1" xmlns:xlink="http://www.w3.org/1999/xlink" width="36" height="36"><svg width="36" height="36" viewBox="0 0 36 36" fill="none" xmlns="http://www.w3.org/2000/svg">
<path d="M29.994 18.0604H29.9963L29.999 18.0615V33.1843C29.999 33.7135 29.57 34.1426 29.0407 34.1426H13.919L13.9175 34.1391V34.1363L6.28068 26.4994C6.10096 26.3197 6 26.076 6 25.8218V2.95829C6 2.42904 6.42904 2 6.95829 2H13.1843C13.7135 2 14.1426 2.42904 14.1426 2.95829V9.18429C14.1426 9.71354 14.5716 10.1426 15.1009 10.1426H21.6792C21.9334 10.1426 22.1771 10.2435 22.3568 10.4233L29.994 18.0604ZM13.9287 25.2556C13.9287 25.7848 14.3578 26.2139 14.887 26.2139H21.113C21.6422 26.2139 22.0713 25.7848 22.0713 25.2556V19.0296C22.0713 18.5003 21.6422 18.0713 21.113 18.0713H14.887C14.3578 18.0713 13.9287 18.5003 13.9287 19.0296V25.2556Z" fill="#F7D370"></path>
</svg></svg></g></g><defs><clipPath id="SvgjsClipPath1150"><rect width="1000" height="1000" x="0" y="0" rx="150" ry="150"></rect></clipPath></defs></svg>