<svg width="178" height="35" viewBox="0 0 178 35" fill="none" xmlns="http://www.w3.org/2000/svg">
<path d="M23.9927 17.0611C23.9935 17.0619 23.9948 17.0619 23.9956 17.0611C23.9968 17.0598 23.999 17.0607 23.999 17.0625V32.1843C23.999 32.7135 23.57 33.1426 23.0407 33.1426H7.91797C7.91617 33.1426 7.91526 33.1404 7.91654 33.1391C7.91733 33.1383 7.91733 33.1371 7.91654 33.1363L0.280677 25.5004C0.100963 25.3207 0 25.0769 0 24.8228V1.95829C0 1.42904 0.42904 1 0.958288 1H7.18429C7.71354 1 8.14258 1.42904 8.14258 1.95829V8.18429C8.14258 8.71354 8.57162 9.14258 9.10087 9.14258H15.6773C15.9314 9.14258 16.1752 9.24354 16.3549 9.42325L23.9927 17.0611ZM7.92969 24.2546C7.92969 24.7838 8.35873 25.2129 8.88798 25.2129H15.114C15.6432 25.2129 16.0723 24.7838 16.0723 24.2546V18.0286C16.0723 17.4994 15.6432 17.0703 15.114 17.0703H8.88798C8.35873 17.0703 7.92969 17.4994 7.92969 18.0286V24.2546Z" fill="black"/>
<path d="M33.7082 9.85904H41.7887C43.1085 9.85904 44.0782 10.1621 44.6977 10.7681C45.3172 11.3607 45.627 12.2697 45.627 13.4953C45.627 14.3033 45.4519 14.9633 45.1017 15.475C44.7516 15.9733 44.3206 16.3235 43.8089 16.5255C44.8997 16.8218 45.6405 17.549 46.031 18.7072C46.1657 19.1247 46.233 19.6096 46.233 20.1617C46.233 21.4816 45.9233 22.4512 45.3038 23.0707C44.6843 23.6902 43.7146 24 42.3948 24H33.7082V9.85904ZM42.5968 19.5557C42.5968 18.7476 42.1928 18.3436 41.3847 18.3436H37.3444V21.1718H41.3847C42.1928 21.1718 42.5968 20.7678 42.5968 19.9597V19.5557ZM41.9907 13.8993C41.9907 13.0913 41.5867 12.6872 40.7787 12.6872H37.3444V15.5154H40.7787C41.5867 15.5154 41.9907 15.1114 41.9907 14.3033V13.8993ZM52.0906 21.3738C52.8044 21.3738 53.6125 21.2391 54.5148 20.9698V19.7577H51.5856C51.3836 19.7577 51.2152 19.8251 51.0806 19.9597C50.9459 20.0944 50.8786 20.2627 50.8786 20.4648V20.6668C50.8786 20.8688 50.9459 21.0371 51.0806 21.1718C51.2152 21.3065 51.3836 21.3738 51.5856 21.3738H52.0906ZM48.3534 13.4953C50.8179 13.2259 53.0401 13.0913 55.0198 13.0913C55.9356 13.0913 56.6696 13.3673 57.2218 13.9195C57.774 14.4717 58.05 15.2057 58.05 16.1215V24H54.9188L54.7168 22.9899C54.0838 23.4074 53.4307 23.7172 52.7573 23.9192C52.0974 24.1077 51.5385 24.202 51.0806 24.202H50.3735C49.4577 24.202 48.7237 23.9259 48.1716 23.3738C47.6194 22.8216 47.3433 22.0876 47.3433 21.1718V20.2627C47.3433 19.347 47.6194 18.613 48.1716 18.0608C48.7237 17.5086 49.4577 17.2325 50.3735 17.2325H54.5148V16.4245C54.5148 16.2225 54.4475 16.0541 54.3128 15.9195C54.1781 15.7848 54.0098 15.7174 53.8078 15.7174C52.9324 15.7174 51.9627 15.7578 50.8988 15.8386C49.8483 15.9195 48.9998 15.9801 48.3534 16.0205V13.4953ZM65.822 16.0205C65.1083 16.0205 64.3002 16.1551 63.3979 16.4245V24H59.8626V13.2933H62.9939L63.1959 14.3033C63.8288 13.8858 64.4753 13.5828 65.1352 13.3943C65.8086 13.1923 66.3742 13.0913 66.8321 13.0913H67.7412C68.657 13.0913 69.391 13.3673 69.9431 13.9195C70.4953 14.4717 70.7714 15.2057 70.7714 16.1215V24H67.2361V16.7275C67.2361 16.5255 67.1688 16.3571 67.0341 16.2225C66.8994 16.0878 66.7311 16.0205 66.5291 16.0205H65.822ZM82.0818 23.798C79.5633 24.0673 77.3412 24.202 75.4153 24.202C74.4995 24.202 73.7655 23.9259 73.2134 23.3738C72.6612 22.8216 72.3851 22.0876 72.3851 21.1718V16.5255C72.3851 15.5154 72.6679 14.7276 73.2336 14.1619C73.8127 13.5828 74.6073 13.2933 75.6173 13.2933H82.0818V16.0205H76.7284C76.1897 16.0205 75.9204 16.2898 75.9204 16.8285V20.7678C75.9204 20.9698 75.9877 21.1381 76.1224 21.2728C76.257 21.4075 76.4254 21.4748 76.6274 21.4748C77.8395 21.4748 79.6576 21.3738 82.0818 21.1718V23.798ZM89.9524 9.85904H98.437C99.8511 9.85904 100.875 10.1823 101.508 10.8287C102.154 11.4617 102.477 12.4852 102.477 13.8993V15.9195C102.477 17.3335 102.154 18.3638 101.508 19.0103C100.875 19.6432 99.8511 19.9597 98.437 19.9597H93.5887V24H89.9524V9.85904ZM98.841 13.8993C98.841 13.0913 98.437 12.6872 97.6289 12.6872H93.5887V17.1315H97.6289C98.437 17.1315 98.841 16.7275 98.841 15.9195V13.8993ZM110.254 16.2225C109.406 16.2225 108.53 16.4245 107.628 16.8285V24H104.093V13.2933H107.224L107.426 14.6064C108.584 13.5963 109.796 13.0913 111.062 13.0913H111.971V16.2225H110.254ZM123.899 20.9698C123.899 21.9799 123.609 22.7745 123.03 23.3536C122.464 23.9192 121.676 24.202 120.666 24.202H116.02C115.01 24.202 114.215 23.9192 113.636 23.3536C113.071 22.7745 112.788 21.9799 112.788 20.9698V16.3235C112.788 15.3134 113.071 14.5256 113.636 13.9599C114.215 13.3808 115.01 13.0913 116.02 13.0913H120.666C121.676 13.0913 122.464 13.3808 123.03 13.9599C123.609 14.5256 123.899 15.3134 123.899 16.3235V20.9698ZM120.363 16.6265C120.363 16.0878 120.094 15.8184 119.555 15.8184H117.131C116.592 15.8184 116.323 16.0878 116.323 16.6265V20.6668C116.323 21.2055 116.592 21.4748 117.131 21.4748H119.555C120.094 21.4748 120.363 21.2055 120.363 20.6668V16.6265ZM133.189 24C131.883 24.1347 130.603 24.202 129.351 24.202C128.435 24.202 127.701 23.9259 127.149 23.3738C126.596 22.8216 126.32 22.0876 126.32 21.1718V16.0205H125.108V13.2933H126.32L126.724 10.8691H129.856V13.2933H132.381V16.0205H129.856V20.6668C129.856 20.8688 129.923 21.0371 130.058 21.1718C130.192 21.3065 130.361 21.3738 130.563 21.3738H133.189V24ZM145.126 20.9698C145.126 21.9799 144.836 22.7745 144.257 23.3536C143.692 23.9192 142.904 24.202 141.894 24.202H137.247C136.237 24.202 135.443 23.9192 134.864 23.3536C134.298 22.7745 134.015 21.9799 134.015 20.9698V16.3235C134.015 15.3134 134.298 14.5256 134.864 13.9599C135.443 13.3808 136.237 13.0913 137.247 13.0913H141.894C142.904 13.0913 143.692 13.3808 144.257 13.9599C144.836 14.5256 145.126 15.3134 145.126 16.3235V20.9698ZM141.591 16.6265C141.591 16.0878 141.321 15.8184 140.783 15.8184H138.358C137.82 15.8184 137.55 16.0878 137.55 16.6265V20.6668C137.55 21.2055 137.82 21.4748 138.358 21.4748H140.783C141.321 21.4748 141.591 21.2055 141.591 20.6668V16.6265ZM156.436 23.798C153.918 24.0673 151.696 24.202 149.77 24.202C148.854 24.202 148.12 23.9259 147.568 23.3738C147.016 22.8216 146.74 22.0876 146.74 21.1718V16.5255C146.74 15.5154 147.022 14.7276 147.588 14.1619C148.167 13.5828 148.962 13.2933 149.972 13.2933H156.436V16.0205H151.083C150.544 16.0205 150.275 16.2898 150.275 16.8285V20.7678C150.275 20.9698 150.342 21.1381 150.477 21.2728C150.612 21.4075 150.78 21.4748 150.982 21.4748C152.194 21.4748 154.012 21.3738 156.436 21.1718V23.798ZM168.957 20.9698C168.957 21.9799 168.668 22.7745 168.088 23.3536C167.523 23.9192 166.735 24.202 165.725 24.202H161.079C160.069 24.202 159.274 23.9192 158.695 23.3536C158.129 22.7745 157.846 21.9799 157.846 20.9698V16.3235C157.846 15.3134 158.129 14.5256 158.695 13.9599C159.274 13.3808 160.069 13.0913 161.079 13.0913H165.725C166.735 13.0913 167.523 13.3808 168.088 13.9599C168.668 14.5256 168.957 15.3134 168.957 16.3235V20.9698ZM165.422 16.6265C165.422 16.0878 165.153 15.8184 164.614 15.8184H162.19C161.651 15.8184 161.382 16.0878 161.382 16.6265V20.6668C161.382 21.2055 161.651 21.4748 162.19 21.4748H164.614C165.153 21.4748 165.422 21.2055 165.422 20.6668V16.6265ZM176.227 24C175.325 24.1347 174.463 24.202 173.641 24.202C172.833 24.202 172.153 23.9259 171.601 23.3738C171.049 22.8216 170.773 22.0876 170.773 21.1718V9.85904H174.308V20.6668C174.308 20.8688 174.375 21.0371 174.51 21.1718C174.645 21.3065 174.813 21.3738 175.015 21.3738H176.227V24Z" fill="black"/>
</svg>

