<svg width="32" height="32" viewBox="0 0 32 32" fill="none" xmlns="http://www.w3.org/2000/svg">
<g filter="url(#filter0_n_2172_15275)">
<path d="M24.6129 9.0698C24.606 9.05639 24.5946 9.04587 24.5808 9.04015C22.9756 8.2991 21.2818 7.77067 19.5416 7.46809C19.5258 7.46514 19.5094 7.46727 19.4949 7.47419C19.4803 7.48111 19.4684 7.49247 19.4606 7.50665C19.2299 7.92789 19.0206 8.36058 18.8333 8.80306C16.9574 8.51653 15.0493 8.51653 13.1735 8.80306C12.9849 8.35946 12.7722 7.92666 12.5362 7.50665C12.5281 7.49278 12.5161 7.48168 12.5016 7.47481C12.4872 7.46793 12.471 7.46559 12.4552 7.46809C10.7148 7.77004 9.02084 8.2985 7.41593 9.04019C7.40219 9.04605 7.3906 9.05606 7.38275 9.06883C4.17325 13.8918 3.29404 18.5961 3.72535 23.2422C3.72657 23.2536 3.73004 23.2646 3.73558 23.2746C3.74111 23.2846 3.74859 23.2934 3.75756 23.3004C5.62643 24.6928 7.71678 25.7557 9.9394 26.4436C9.95506 26.4483 9.97177 26.4481 9.9873 26.443C10.0028 26.4378 10.0164 26.4281 10.0263 26.4149C10.5036 25.7613 10.9266 25.0692 11.2909 24.3457C11.2959 24.3357 11.2988 24.3249 11.2993 24.3137C11.2998 24.3026 11.298 24.2915 11.294 24.2811C11.2899 24.2708 11.2837 24.2614 11.2758 24.2536C11.2679 24.2459 11.2584 24.2399 11.248 24.236C10.581 23.9792 9.93525 23.6696 9.31682 23.3102C9.30559 23.3035 9.29615 23.2942 9.28935 23.283C9.28255 23.2718 9.27858 23.2591 9.27781 23.2461C9.27704 23.233 9.27949 23.2199 9.28493 23.208C9.29038 23.1961 9.29865 23.1857 9.30903 23.1777C9.43916 23.0799 9.56704 22.9791 9.69255 22.8754C9.70356 22.8663 9.71688 22.8604 9.73101 22.8585C9.74515 22.8566 9.75953 22.8587 9.77255 22.8645C13.8241 24.7251 18.2105 24.7251 22.2141 22.8645C22.2272 22.8583 22.2417 22.8559 22.256 22.8577C22.2704 22.8594 22.2839 22.8652 22.2951 22.8744C22.4208 22.9787 22.549 23.0798 22.6796 23.1777C22.6901 23.1856 22.6984 23.1959 22.7039 23.2078C22.7095 23.2196 22.712 23.2327 22.7113 23.2458C22.7107 23.2589 22.7068 23.2716 22.7001 23.2828C22.6933 23.2941 22.684 23.3035 22.6728 23.3102C22.0558 23.6727 21.4094 23.982 20.7407 24.235C20.7303 24.239 20.7209 24.2452 20.713 24.2531C20.7051 24.261 20.699 24.2704 20.695 24.2809C20.6911 24.2913 20.6893 24.3025 20.6899 24.3137C20.6905 24.3248 20.6935 24.3357 20.6986 24.3457C21.069 25.0652 21.4913 25.7564 21.9623 26.4138C21.9718 26.4273 21.9853 26.4374 22.0009 26.4427C22.0165 26.448 22.0334 26.4483 22.0491 26.4434C24.2757 25.7579 26.3697 24.6949 28.2409 23.3004C28.2501 23.2937 28.2576 23.2852 28.2632 23.2753C28.2687 23.2654 28.2721 23.2545 28.2732 23.2432C28.7895 17.8718 27.4087 13.206 24.6129 9.0698ZM11.896 20.4132C10.6762 20.4132 9.67108 19.2868 9.67108 17.9034C9.67108 16.5201 10.6567 15.3936 11.896 15.3936C13.145 15.3936 14.1404 16.5299 14.1209 17.9034C14.1209 19.2868 13.1352 20.4132 11.896 20.4132ZM20.1222 20.4132C18.9024 20.4132 17.8973 19.2868 17.8973 17.9034C17.8973 16.5201 18.8829 15.3936 20.1222 15.3936C21.3713 15.3936 22.3666 16.5299 22.3471 17.9034C22.3471 19.2868 21.3713 20.4132 20.1222 20.4132Z" fill="#F3F8FF" fill-opacity="0.58"/>
<path d="M19.626 6.97656L19.627 6.97559L19.6289 6.97656C19.6304 6.97683 19.6323 6.97628 19.6338 6.97656L19.6328 6.97754C21.4137 7.28771 23.1474 7.82759 24.79 8.58594L24.7891 8.58691C24.8866 8.63121 24.9673 8.70243 25.0254 8.79102L25.0273 8.79004C27.8825 13.0142 29.2978 17.7934 28.7705 23.2871C28.7632 23.3688 28.7395 23.4488 28.6992 23.5205C28.6595 23.5912 28.6043 23.6517 28.5391 23.7002L28.54 23.7012C26.6232 25.1297 24.4775 26.2185 22.1963 26.9209C22.0799 26.9567 21.9551 26.9553 21.8398 26.916H21.8389C21.7243 26.8768 21.6256 26.8022 21.5557 26.7041C21.0707 26.0271 20.6353 25.3152 20.2539 24.5742V24.5732C20.2169 24.501 20.1949 24.4218 20.1904 24.3408C20.1869 24.2764 20.1962 24.2123 20.2139 24.1504C17.4439 24.9629 14.5611 24.9607 11.7725 24.1445C11.7912 24.207 11.8019 24.2716 11.7988 24.3369C11.795 24.418 11.7739 24.4977 11.7373 24.5703C11.3607 25.3183 10.9232 26.0342 10.4297 26.71L10.4268 26.7148C10.3558 26.8095 10.2566 26.8807 10.1436 26.918C10.0305 26.9552 9.90882 26.9563 9.79492 26.9219L9.79199 26.9209C7.51498 26.2162 5.37335 25.1275 3.45898 23.7012L3.44922 23.6943L3.75781 23.3008L3.44922 23.6934C3.38744 23.6449 3.3357 23.5851 3.29785 23.5166C3.26 23.4481 3.23679 23.3725 3.22852 23.2949L3.22754 23.2881C2.80027 18.6848 3.63393 14.0175 6.66602 9.25293L6.9668 8.79199C7.0256 8.70275 7.10832 8.63171 7.20605 8.58691V8.58594C8.85048 7.82599 10.5868 7.28498 12.3701 6.97559L12.377 6.97461C12.4636 6.96087 12.5516 6.9671 12.6348 6.99219L12.7168 7.02344L12.792 7.06641C12.8639 7.11502 12.9238 7.17959 12.9678 7.25488L12.9727 7.26172L12.9717 7.2627C13.1539 7.58713 13.3234 7.91857 13.4785 8.25684C15.1541 8.03501 16.8508 8.03517 18.5264 8.25684C18.6789 7.92096 18.8444 7.59112 19.0215 7.26758C19.0795 7.16147 19.1704 7.07478 19.2803 7.02246L19.3643 6.99023C19.4488 6.96524 19.5383 6.96132 19.626 6.97656ZM11.8955 15.8936C10.9893 15.8939 10.171 16.736 10.1709 17.9033C10.1709 19.0676 11.006 19.9128 11.8955 19.9131C12.8019 19.9131 13.6211 19.0709 13.6211 17.9033V17.8965C13.6374 16.7484 12.815 15.8936 11.8955 15.8936ZM20.1221 15.8936C19.2157 15.8936 18.3975 16.7359 18.3975 17.9033C18.3975 19.0678 19.2325 19.913 20.1221 19.9131C21.037 19.9131 21.8467 19.0725 21.8467 17.9033V17.8965C21.863 16.7484 21.0416 15.8936 20.1221 15.8936Z" stroke="url(#paint0_linear_2172_15275)"/>
</g>
<defs>
<filter id="filter0_n_2172_15275" x="2.62305" y="6.4668" width="26.7559" height="20.9805" filterUnits="userSpaceOnUse" color-interpolation-filters="sRGB">
<feFlood flood-opacity="0" result="BackgroundImageFix"/>
<feBlend mode="normal" in="SourceGraphic" in2="BackgroundImageFix" result="shape"/>
<feTurbulence type="fractalNoise" baseFrequency="3.3333332538604736 3.3333332538604736" stitchTiles="stitch" numOctaves="3" result="noise" seed="8386" />
<feColorMatrix in="noise" type="luminanceToAlpha" result="alphaNoise" />
<feComponentTransfer in="alphaNoise" result="coloredNoise1">
<feFuncA type="discrete" tableValues="1 1 1 1 1 1 1 1 1 1 1 1 1 1 1 1 1 1 1 1 1 1 1 1 1 1 1 1 1 1 1 1 1 1 1 1 1 1 1 1 1 1 1 1 1 1 1 1 1 1 1 0 0 0 0 0 0 0 0 0 0 0 0 0 0 0 0 0 0 0 0 0 0 0 0 0 0 0 0 0 0 0 0 0 0 0 0 0 0 0 0 0 0 0 0 0 0 0 0 0 "/>
</feComponentTransfer>
<feComposite operator="in" in2="shape" in="coloredNoise1" result="noise1Clipped" />
<feFlood flood-color="rgba(0, 0, 0, 0.25)" result="color1Flood" />
<feComposite operator="in" in2="noise1Clipped" in="color1Flood" result="color1" />
<feMerge result="effect1_noise_2172_15275">
<feMergeNode in="shape" />
<feMergeNode in="color1" />
</feMerge>
</filter>
<linearGradient id="paint0_linear_2172_15275" x1="16.0014" y1="7.4668" x2="16.0014" y2="26.447" gradientUnits="userSpaceOnUse">
<stop stop-color="#476796" stop-opacity="0.12"/>
<stop offset="0.495192" stop-color="#476796" stop-opacity="0.76"/>
<stop offset="1" stop-color="#476796" stop-opacity="0.04"/>
</linearGradient>
</defs>
</svg>


