<svg width="30" height="22" viewBox="0 0 30 22" fill="none" xmlns="http://www.w3.org/2000/svg">
<g filter="url(#filter0_n_2172_15284)">
<path fill-rule="evenodd" clip-rule="evenodd" d="M16.5908 1.24723L25.6305 5.85887C26.0482 6.07197 26.0547 6.67787 25.6417 6.90026L13.9013 13.2225C13.2467 13.575 12.4656 13.5837 11.8036 13.246L4.43223 9.48544C3.53421 9.11734 2.53011 9.78963 2.53011 10.8023C2.53011 11.6164 2.98094 12.3607 3.69465 12.7248L11.085 16.495C11.5361 16.0264 12.1643 15.7357 12.859 15.7357C13.5339 15.7357 14.1459 16.01 14.5939 16.4553L23.7989 11.4984C23.7736 11.3535 23.7605 11.2043 23.7605 11.052C23.7605 9.65088 24.8737 8.51508 26.2469 8.51508C27.6201 8.51508 28.7333 9.65088 28.7333 11.052C28.7333 12.4531 27.6201 13.5889 26.2469 13.5889C25.5755 13.5889 24.9662 13.3174 24.5188 12.876L15.3087 17.8357C15.3328 17.9776 15.3454 18.1236 15.3454 18.2726C15.3454 19.6737 14.2322 20.8095 12.859 20.8095C11.4858 20.8095 10.3726 19.6737 10.3726 18.2726C10.3726 18.143 10.3821 18.0157 10.4005 17.8913L2.9031 14.0665C1.73675 13.4715 1 12.2552 1 10.9246V10.1836C1 9.17027 1.54966 8.24019 2.42798 7.76727L14.4931 1.27075C15.1477 0.918238 15.9288 0.909481 16.5908 1.24723ZM12.859 19.2483C13.3872 19.2483 13.8153 18.8115 13.8153 18.2726C13.8153 17.7337 13.3872 17.2969 12.859 17.2969C12.3308 17.2969 11.9027 17.7337 11.9027 18.2726C11.9027 18.8115 12.3308 19.2483 12.859 19.2483ZM27.2032 11.052C27.2032 11.5909 26.7751 12.0278 26.2469 12.0278C25.7188 12.0278 25.2906 11.5909 25.2906 11.052C25.2906 10.5131 25.7188 10.0762 26.2469 10.0762C26.7751 10.0762 27.2032 10.5131 27.2032 11.052Z" fill="#F3F8FF" fill-opacity="0.58"/>
<path d="M14.2559 0.830078C15.0549 0.3998 16.01 0.389389 16.8184 0.801758L25.8574 5.41309C26.6348 5.80965 26.6466 6.92748 25.8789 7.34082L14.1387 13.6631C13.3396 14.0934 12.3845 14.1038 11.5762 13.6914L4.2334 9.94531C3.67662 9.72425 3.03027 10.138 3.03027 10.8027C3.03044 11.4326 3.37914 12.0024 3.92188 12.2793L11.0068 15.8936C11.5151 15.484 12.158 15.2354 12.8594 15.2354C13.5363 15.2354 14.1586 15.4671 14.6582 15.8516L23.2676 11.2158C23.2647 11.1615 23.2607 11.1067 23.2607 11.0518C23.2609 9.38413 24.5884 8.01465 26.2471 8.01465C27.9057 8.01474 29.2333 9.38419 29.2334 11.0518C29.2334 12.7195 27.9058 14.0888 26.2471 14.0889C25.5731 14.0889 24.9537 13.8589 24.4551 13.4775L15.8379 18.1182C15.8404 18.1694 15.8457 18.2207 15.8457 18.2725C15.8457 19.94 14.518 21.3094 12.8594 21.3096C11.2006 21.3096 9.87305 19.9402 9.87305 18.2725C9.87305 18.2431 9.87516 18.2138 9.87598 18.1846L2.67578 14.5117C1.33876 13.8296 0.500057 12.4393 0.5 10.9248V10.1836C0.5 8.98999 1.14793 7.88898 2.19141 7.32715L14.2559 0.830078ZM12.8594 17.7969C12.6168 17.7969 12.4024 18.0003 12.4023 18.2725C12.4023 18.5447 12.6168 18.748 12.8594 18.748C13.1018 18.7478 13.3154 18.5446 13.3154 18.2725C13.3154 18.0004 13.1018 17.7971 12.8594 17.7969ZM26.2471 10.5762C26.0046 10.5762 25.7911 10.7796 25.791 11.0518C25.791 11.3241 26.0045 11.5273 26.2471 11.5273C26.4896 11.5273 26.7031 11.324 26.7031 11.0518C26.703 10.7797 26.4895 10.5763 26.2471 10.5762Z" stroke="url(#paint0_linear_2172_15284)"/>
</g>
<defs>
<filter id="filter0_n_2172_15284" x="0" y="0" width="29.7324" height="21.8096" filterUnits="userSpaceOnUse" color-interpolation-filters="sRGB">
<feFlood flood-opacity="0" result="BackgroundImageFix"/>
<feBlend mode="normal" in="SourceGraphic" in2="BackgroundImageFix" result="shape"/>
<feTurbulence type="fractalNoise" baseFrequency="3.3333332538604736 3.3333332538604736" stitchTiles="stitch" numOctaves="3" result="noise" seed="8386" />
<feColorMatrix in="noise" type="luminanceToAlpha" result="alphaNoise" />
<feComponentTransfer in="alphaNoise" result="coloredNoise1">
<feFuncA type="discrete" tableValues="1 1 1 1 1 1 1 1 1 1 1 1 1 1 1 1 1 1 1 1 1 1 1 1 1 1 1 1 1 1 1 1 1 1 1 1 1 1 1 1 1 1 1 1 1 1 1 1 1 1 1 0 0 0 0 0 0 0 0 0 0 0 0 0 0 0 0 0 0 0 0 0 0 0 0 0 0 0 0 0 0 0 0 0 0 0 0 0 0 0 0 0 0 0 0 0 0 0 0 0 "/>
</feComponentTransfer>
<feComposite operator="in" in2="shape" in="coloredNoise1" result="noise1Clipped" />
<feFlood flood-color="rgba(0, 0, 0, 0.25)" result="color1Flood" />
<feComposite operator="in" in2="noise1Clipped" in="color1Flood" result="color1" />
<feMerge result="effect1_noise_2172_15284">
<feMergeNode in="shape" />
<feMergeNode in="color1" />
</feMerge>
</filter>
<linearGradient id="paint0_linear_2172_15284" x1="14.8667" y1="1" x2="14.8667" y2="20.8095" gradientUnits="userSpaceOnUse">
<stop stop-color="#476796" stop-opacity="0.12"/>
<stop offset="0.495192" stop-color="#476796" stop-opacity="0.76"/>
<stop offset="1" stop-color="#476796" stop-opacity="0.04"/>
</linearGradient>
</defs>
</svg>

