<svg width="21" height="23" viewBox="0 0 21 23" fill="none" xmlns="http://www.w3.org/2000/svg">
<g filter="url(#filter0_n_2172_15281)">
<path d="M17.8283 4.47763C18.633 2.97097 17.7134 1 17.7134 1C15.6442 1 14.1491 2.39076 14.1491 2.39076C13.3444 1.92717 10.6998 1.92717 10.6998 1.92717C10.6998 1.92717 8.05512 1.92717 7.25044 2.39076C7.25044 2.39076 5.75605 1 3.68616 1C3.68616 1 2.76654 2.97024 3.57121 4.47763C3.57121 4.47763 1.73196 6.21608 2.42168 9.9255C3.07019 13.4112 6.10091 14.3303 8.05512 14.3303C8.05512 14.3303 7.25044 15.0257 7.3654 16.1847C7.3654 16.1847 6.21586 16.88 5.06633 16.4164C3.91679 15.9529 3.34203 14.7939 3.34203 14.7939C3.34203 14.7939 2.19249 13.2872 1.04296 13.8667C1.04296 13.8667 0.698098 14.2144 1.96259 14.7939C1.96259 14.7939 2.88221 16.1847 3.22707 16.9959C3.57193 17.8072 5.41119 18.5026 7.25116 18.039V20.7046C7.25116 20.7046 7.25116 20.9364 6.79135 21.0523C6.33154 21.1682 6.33154 21.4 6.56144 21.4H14.8395C15.0694 21.4 15.0694 21.1682 14.6096 21.0523C14.1498 20.9364 14.1498 20.7046 14.1498 20.7046V18.039C14.1498 18.039 14.1599 16.649 14.1498 16.1847C14.1245 15.0199 13.3451 14.3303 13.3451 14.3303C15.2993 14.3303 18.3301 13.4112 18.9786 9.9255C19.6683 6.21608 17.829 4.47763 17.829 4.47763H17.8283Z" fill="#F3F8FF" fill-opacity="0.58"/>
<path d="M3.68652 0.5C4.83212 0.50008 5.80688 0.883812 6.48535 1.25684C6.82624 1.44427 7.0981 1.63225 7.28613 1.77441C7.30255 1.78683 7.31784 1.79981 7.33301 1.81152C7.5541 1.73308 7.80082 1.67405 8.04004 1.63086C8.42457 1.56144 8.84963 1.51597 9.23926 1.48633C9.63013 1.4566 9.99401 1.44196 10.2598 1.43457C10.3928 1.43087 10.502 1.42867 10.5781 1.42773C10.6162 1.42727 10.6464 1.42785 10.667 1.42773C10.6771 1.42768 10.6849 1.42677 10.6904 1.42676H10.6992L10.7002 1.92676V1.42676H10.709C10.7145 1.42677 10.7223 1.42768 10.7324 1.42773C10.753 1.42785 10.7832 1.42727 10.8213 1.42773C10.8974 1.42867 11.0066 1.43087 11.1396 1.43457C11.4054 1.44196 11.7693 1.4566 12.1602 1.48633C12.5497 1.51597 12.9749 1.56145 13.3594 1.63086C13.5983 1.67399 13.8446 1.73325 14.0654 1.81152C14.0808 1.79964 14.0966 1.78703 14.1133 1.77441C14.3013 1.63226 14.5731 1.44429 14.9141 1.25684C15.5926 0.883814 16.5676 0.500107 17.7129 0.5H18.0322L18.166 0.789062L17.7129 1L18.167 0.789062V0.790039L18.168 0.791992C18.1687 0.793678 18.1697 0.796218 18.1709 0.798828C18.1733 0.804124 18.1767 0.81136 18.1807 0.820312C18.1887 0.838409 18.1996 0.864385 18.2129 0.896484C18.2395 0.960616 18.2754 1.05176 18.3154 1.16504C18.3953 1.39102 18.493 1.70916 18.5635 2.08008C18.6855 2.7228 18.7359 3.5804 18.416 4.3916C18.4449 4.42823 18.4766 4.46775 18.5088 4.51172C18.6909 4.76065 18.9203 5.12836 19.124 5.61816C19.5336 6.60301 19.8328 8.06351 19.4697 10.0166C19.1181 11.9067 18.1092 13.1263 16.9131 13.8613C16.0626 14.3839 15.1273 14.654 14.2803 14.7656C14.4689 15.124 14.6369 15.5991 14.6494 16.1738C14.6546 16.4134 14.6546 16.8834 14.6533 17.2871C14.6527 17.4904 14.6522 17.6795 14.6514 17.8174C14.651 17.8862 14.6506 17.9424 14.6504 17.9814C14.6503 18.0007 14.6505 18.016 14.6504 18.0264C14.6504 18.0312 14.6494 18.0354 14.6494 18.0381V20.541C14.6704 20.5489 14.697 20.5587 14.7314 20.5674C14.8817 20.6052 15.0194 20.659 15.1357 20.7314C15.2432 20.7983 15.3787 20.9099 15.4482 21.085C15.5318 21.2956 15.4944 21.5508 15.3066 21.7266C15.1536 21.8698 14.9657 21.9003 14.8398 21.9004H6.56152C6.43567 21.9004 6.24689 21.8699 6.09375 21.7266C5.90629 21.5508 5.86959 21.2955 5.95312 21.085C6.02259 20.9101 6.15728 20.7984 6.26465 20.7314C6.38099 20.659 6.51872 20.6053 6.66895 20.5674C6.70327 20.5587 6.73003 20.5489 6.75098 20.541V18.6387C5.95344 18.7423 5.18244 18.6662 4.53613 18.4746C4.12931 18.354 3.75962 18.1856 3.45898 17.9785C3.16369 17.7751 2.90284 17.5119 2.7666 17.1914C2.60971 16.8224 2.3109 16.2994 2.03809 15.8506C1.90416 15.6303 1.78049 15.4346 1.69043 15.2939C1.66335 15.2517 1.63945 15.214 1.61914 15.1826C1.05226 14.9065 0.713983 14.6305 0.573242 14.3184C0.487935 14.1291 0.482633 13.943 0.530273 13.7852C0.552427 13.7119 0.583576 13.6533 0.612305 13.6094C0.626688 13.5874 0.640552 13.5682 0.65332 13.5527C0.65975 13.5449 0.66614 13.5376 0.671875 13.5312L0.6875 13.5156C0.690523 13.5178 0.718039 13.5446 1.00098 13.8252L0.6875 13.5146L0.745117 13.457L0.818359 13.4199C1.64583 13.0031 2.43264 13.3657 2.91211 13.7041C3.16223 13.8806 3.36647 14.0751 3.50684 14.2227C3.57751 14.297 3.63354 14.3615 3.67285 14.4082C3.69252 14.4316 3.70859 14.4509 3.71973 14.4648C3.7253 14.4718 3.73005 14.4781 3.7334 14.4824C3.73491 14.4844 3.73628 14.486 3.7373 14.4873L3.73828 14.4893L3.73926 14.4902L3.76855 14.5283L3.79199 14.5752C3.79482 14.5806 3.79955 14.5906 3.80664 14.6035C3.82085 14.6293 3.844 14.6687 3.875 14.7188C3.93723 14.8191 4.03176 14.9593 4.1582 15.1123C4.41504 15.423 4.78265 15.7634 5.25293 15.9531C5.6912 16.1299 6.14675 16.0909 6.51758 15.9912C6.64911 15.9558 6.76425 15.9119 6.8584 15.873C6.87219 15.4345 6.98794 15.062 7.13086 14.7676C6.28093 14.6569 5.34142 14.3861 4.4873 13.8613C3.29118 13.1263 2.28134 11.9067 1.92969 10.0166C1.56662 8.06358 1.86678 6.60298 2.27637 5.61816C2.4801 5.12841 2.7085 4.76065 2.89062 4.51172C2.92246 4.4682 2.9538 4.42891 2.98242 4.39258C2.66231 3.581 2.71385 2.72294 2.83594 2.08008C2.90639 1.70916 3.00409 1.39102 3.08398 1.16504C3.12408 1.05163 3.15991 0.959639 3.18652 0.895508C3.19975 0.86363 3.21079 0.83832 3.21875 0.820312C3.22273 0.811311 3.2261 0.804145 3.22852 0.798828C3.22972 0.79617 3.23066 0.793701 3.23145 0.791992L3.23242 0.790039V0.789062H3.2334V0.788086L3.36816 0.5H3.68652Z" stroke="url(#paint0_linear_2172_15281)"/>
</g>
<defs>
<filter id="filter0_n_2172_15281" x="0" y="0" width="20.1328" height="22.4004" filterUnits="userSpaceOnUse" color-interpolation-filters="sRGB">
<feFlood flood-opacity="0" result="BackgroundImageFix"/>
<feBlend mode="normal" in="SourceGraphic" in2="BackgroundImageFix" result="shape"/>
<feTurbulence type="fractalNoise" baseFrequency="3.3333332538604736 3.3333332538604736" stitchTiles="stitch" numOctaves="3" result="noise" seed="8386" />
<feColorMatrix in="noise" type="luminanceToAlpha" result="alphaNoise" />
<feComponentTransfer in="alphaNoise" result="coloredNoise1">
<feFuncA type="discrete" tableValues="1 1 1 1 1 1 1 1 1 1 1 1 1 1 1 1 1 1 1 1 1 1 1 1 1 1 1 1 1 1 1 1 1 1 1 1 1 1 1 1 1 1 1 1 1 1 1 1 1 1 1 0 0 0 0 0 0 0 0 0 0 0 0 0 0 0 0 0 0 0 0 0 0 0 0 0 0 0 0 0 0 0 0 0 0 0 0 0 0 0 0 0 0 0 0 0 0 0 0 0 "/>
</feComponentTransfer>
<feComposite operator="in" in2="shape" in="coloredNoise1" result="noise1Clipped" />
<feFlood flood-color="rgba(0, 0, 0, 0.25)" result="color1Flood" />
<feComposite operator="in" in2="noise1Clipped" in="color1Flood" result="color1" />
<feMerge result="effect1_noise_2172_15281">
<feMergeNode in="shape" />
<feMergeNode in="color1" />
</feMerge>
</filter>
<linearGradient id="paint0_linear_2172_15281" x1="10.0667" y1="1" x2="10.0667" y2="21.4" gradientUnits="userSpaceOnUse">
<stop stop-color="#476796" stop-opacity="0.12"/>
<stop offset="0.495192" stop-color="#476796" stop-opacity="0.76"/>
<stop offset="1" stop-color="#476796" stop-opacity="0.04"/>
</linearGradient>
</defs>
</svg>

