<svg width="32" height="32" viewBox="0 0 32 32" fill="none" xmlns="http://www.w3.org/2000/svg">
<g filter="url(#filter0_n_2172_15272)">
<path d="M26.6582 9.99428C26.0239 10.9231 25.2562 11.7145 24.3552 12.368C24.3649 12.5003 24.3697 12.6992 24.3697 12.9648C24.3697 14.1968 24.1896 15.4258 23.8295 16.6518C23.4693 17.8779 22.9224 19.0548 22.1888 20.1826C21.455 21.3104 20.5812 22.3078 19.5674 23.1748C18.5536 24.042 17.3312 24.7338 15.9002 25.2503C14.4692 25.7669 12.9393 26.0253 11.3106 26.0253C8.74334 26.0253 6.39365 25.3383 4.26172 23.9644C4.59274 24.0019 4.96204 24.0207 5.36959 24.0207C7.50153 24.0207 9.40127 23.3671 11.0687 22.0598C10.0743 22.0404 9.18354 21.7349 8.39651 21.143C7.6095 20.5513 7.06922 19.7957 6.7757 18.8766C7.08854 18.9238 7.37777 18.9475 7.64336 18.9475C8.05091 18.9475 8.45346 18.8953 8.85129 18.791C7.79018 18.5728 6.91147 18.0446 6.2154 17.2066C5.51934 16.3688 5.1713 15.3955 5.1713 14.2872V14.2307C5.81528 14.5909 6.50711 14.7849 7.24687 14.8128C6.62115 14.3957 6.12381 13.8512 5.75516 13.1793C5.38649 12.5076 5.2015 11.7781 5.20041 10.9911C5.20041 10.1568 5.40891 9.38492 5.82618 8.6755C6.97221 10.087 8.36735 11.2166 10.0119 12.0643C11.6562 12.912 13.416 13.3831 15.2908 13.4777C15.2156 13.1175 15.178 12.7671 15.178 12.4263C15.178 11.1566 15.6255 10.0743 16.5205 9.17934C17.4155 8.28438 18.4978 7.83691 19.7675 7.83691C21.0942 7.83691 22.2123 8.32023 23.1219 9.28667C24.1552 9.08777 25.1265 8.7185 26.036 8.17886C25.6855 9.26785 25.0131 10.1113 24.0187 10.7091C24.9003 10.6145 25.7813 10.3775 26.6617 9.99791L26.6582 9.99428Z" fill="#F3F8FF" fill-opacity="0.58"/>
<path d="M26.5117 8.33203C26.3354 8.87977 26.0832 9.37186 25.7588 9.80859C25.9467 9.74466 26.1347 9.67359 26.3232 9.5957L26.5918 9.2041L27.0186 9.64746L27.0225 9.65137L27.5225 10.1709L26.9785 10.4053C26.3828 11.25 25.6788 11.9843 24.8662 12.6074C24.8687 12.7125 24.8701 12.8321 24.8701 12.9648C24.8701 14.2463 24.6827 15.5229 24.3096 16.793C23.935 18.0681 23.3661 19.2888 22.6074 20.4551C21.8479 21.6225 20.9429 22.6564 19.8926 23.5547C18.827 24.4661 17.5501 25.1865 16.0703 25.7207C14.5812 26.2583 12.9931 26.5254 11.3105 26.5254C8.64857 26.5254 6.20483 25.8112 3.99121 24.3848L4.31836 23.4678C4.62693 23.5027 4.97678 23.5205 5.36914 23.5205C6.96454 23.5205 8.41581 23.1341 9.7334 22.3633C9.14903 22.196 8.60169 21.9235 8.0957 21.543C7.22767 20.8903 6.62552 20.0483 6.2998 19.0283L6.05469 18.2617L6.69727 18.3584C6.38447 18.1206 6.09488 17.8439 5.83105 17.5264C5.05899 16.597 4.6709 15.5099 4.6709 14.2871V13.3779L5.41504 13.7939C5.48076 13.8307 5.54748 13.8656 5.61426 13.8984C5.50814 13.7456 5.40786 13.5866 5.31641 13.4199C4.9064 12.6728 4.70146 11.8605 4.7002 10.9922V10.9912C4.7002 10.0691 4.93237 9.20928 5.39551 8.42188L5.76074 7.80078L6.21387 8.36035C7.3156 9.71731 8.65699 10.8035 10.2412 11.6201C11.641 12.3417 13.1274 12.7779 14.7031 12.9316C14.687 12.762 14.6777 12.5937 14.6777 12.4268C14.6777 11.025 15.178 9.81521 16.167 8.82617C17.1561 7.83711 18.3657 7.33691 19.7676 7.33691C21.1357 7.33692 22.3162 7.80859 23.2842 8.74023C24.1648 8.54303 24.9971 8.2143 25.7812 7.74902L26.916 7.0752L26.5117 8.33203Z" stroke="url(#paint0_linear_2172_15272)"/>
</g>
<defs>
<filter id="filter0_n_2172_15272" x="3.7207" y="5.9707" width="24.6621" height="21.0547" filterUnits="userSpaceOnUse" color-interpolation-filters="sRGB">
<feFlood flood-opacity="0" result="BackgroundImageFix"/>
<feBlend mode="normal" in="SourceGraphic" in2="BackgroundImageFix" result="shape"/>
<feTurbulence type="fractalNoise" baseFrequency="3.3333332538604736 3.3333332538604736" stitchTiles="stitch" numOctaves="3" result="noise" seed="8386" />
<feColorMatrix in="noise" type="luminanceToAlpha" result="alphaNoise" />
<feComponentTransfer in="alphaNoise" result="coloredNoise1">
<feFuncA type="discrete" tableValues="1 1 1 1 1 1 1 1 1 1 1 1 1 1 1 1 1 1 1 1 1 1 1 1 1 1 1 1 1 1 1 1 1 1 1 1 1 1 1 1 1 1 1 1 1 1 1 1 1 1 1 0 0 0 0 0 0 0 0 0 0 0 0 0 0 0 0 0 0 0 0 0 0 0 0 0 0 0 0 0 0 0 0 0 0 0 0 0 0 0 0 0 0 0 0 0 0 0 0 0 "/>
</feComponentTransfer>
<feComposite operator="in" in2="shape" in="coloredNoise1" result="noise1Clipped" />
<feFlood flood-color="rgba(0, 0, 0, 0.25)" result="color1Flood" />
<feComposite operator="in" in2="noise1Clipped" in="color1Flood" result="color1" />
<feMerge result="effect1_noise_2172_15272">
<feMergeNode in="shape" />
<feMergeNode in="color1" />
</feMerge>
</filter>
<linearGradient id="paint0_linear_2172_15272" x1="15.4617" y1="7.83691" x2="15.4617" y2="26.0253" gradientUnits="userSpaceOnUse">
<stop stop-color="#476796" stop-opacity="0.12"/>
<stop offset="0.495192" stop-color="#476796" stop-opacity="0.76"/>
<stop offset="1" stop-color="#476796" stop-opacity="0.04"/>
</linearGradient>
</defs>
</svg>

